ISO-10303-21;
HEADER;
/* Generated by software containing ST-Developer
 * from STEP Tools, Inc. (www.steptools.com) 
 */

FILE_DESCRIPTION(
/* description */ (''),
/* implementation_level */ '2;1');

FILE_NAME(
/* name */ 'case.step',
/* time_stamp */ '2026-03-20T19:49:45+05:30',
/* author */ (''),
/* organization */ (''),
/* preprocessor_version */ 'ST-DEVELOPER v20.1',
/* originating_system */ 'Autodesk Translation Framework v14.24.0.0',
/* authorisation */ '');

FILE_SCHEMA (('AUTOMOTIVE_DESIGN { 1 0 10303 214 3 1 1 }'));
ENDSEC;

DATA;
#10=MECHANICAL_DESIGN_GEOMETRIC_PRESENTATION_REPRESENTATION('',(#13),#743);
#11=SHAPE_REPRESENTATION_RELATIONSHIP('SRR','None',#750,#12);
#12=ADVANCED_BREP_SHAPE_REPRESENTATION('',(#14),#742);
#13=STYLED_ITEM('',(#760),#14);
#14=MANIFOLD_SOLID_BREP('Body1',#443);
#15=FACE_BOUND('',#65,.T.);
#16=FACE_BOUND('',#66,.T.);
#17=FACE_BOUND('',#67,.T.);
#18=FACE_BOUND('',#68,.T.);
#19=FACE_BOUND('',#85,.T.);
#20=FACE_BOUND('',#86,.T.);
#21=FACE_BOUND('',#87,.T.);
#22=FACE_BOUND('',#88,.T.);
#23=PLANE('',#472);
#24=PLANE('',#476);
#25=PLANE('',#481);
#26=PLANE('',#484);
#27=PLANE('',#485);
#28=PLANE('',#486);
#29=PLANE('',#487);
#30=PLANE('',#488);
#31=PLANE('',#489);
#32=PLANE('',#490);
#33=PLANE('',#491);
#34=PLANE('',#492);
#35=PLANE('',#493);
#36=PLANE('',#494);
#37=FACE_OUTER_BOUND('',#59,.T.);
#38=FACE_OUTER_BOUND('',#60,.T.);
#39=FACE_OUTER_BOUND('',#61,.T.);
#40=FACE_OUTER_BOUND('',#62,.T.);
#41=FACE_OUTER_BOUND('',#63,.T.);
#42=FACE_OUTER_BOUND('',#64,.T.);
#43=FACE_OUTER_BOUND('',#69,.T.);
#44=FACE_OUTER_BOUND('',#70,.T.);
#45=FACE_OUTER_BOUND('',#71,.T.);
#46=FACE_OUTER_BOUND('',#72,.T.);
#47=FACE_OUTER_BOUND('',#73,.T.);
#48=FACE_OUTER_BOUND('',#74,.T.);
#49=FACE_OUTER_BOUND('',#75,.T.);
#50=FACE_OUTER_BOUND('',#76,.T.);
#51=FACE_OUTER_BOUND('',#77,.T.);
#52=FACE_OUTER_BOUND('',#78,.T.);
#53=FACE_OUTER_BOUND('',#79,.T.);
#54=FACE_OUTER_BOUND('',#80,.T.);
#55=FACE_OUTER_BOUND('',#81,.T.);
#56=FACE_OUTER_BOUND('',#82,.T.);
#57=FACE_OUTER_BOUND('',#83,.T.);
#58=FACE_OUTER_BOUND('',#84,.T.);
#59=EDGE_LOOP('',(#293,#294,#295,#296));
#60=EDGE_LOOP('',(#297,#298,#299,#300));
#61=EDGE_LOOP('',(#301,#302,#303,#304));
#62=EDGE_LOOP('',(#305,#306,#307,#308));
#63=EDGE_LOOP('',(#309,#310,#311,#312));
#64=EDGE_LOOP('',(#313,#314,#315,#316,#317,#318,#319,#320,#321,#322,#323,
#324,#325,#326,#327,#328));
#65=EDGE_LOOP('',(#329));
#66=EDGE_LOOP('',(#330));
#67=EDGE_LOOP('',(#331));
#68=EDGE_LOOP('',(#332));
#69=EDGE_LOOP('',(#333,#334,#335,#336));
#70=EDGE_LOOP('',(#337,#338,#339,#340));
#71=EDGE_LOOP('',(#341,#342,#343,#344));
#72=EDGE_LOOP('',(#345,#346,#347,#348));
#73=EDGE_LOOP('',(#349,#350,#351,#352));
#74=EDGE_LOOP('',(#353,#354,#355,#356));
#75=EDGE_LOOP('',(#357,#358,#359,#360));
#76=EDGE_LOOP('',(#361,#362,#363,#364));
#77=EDGE_LOOP('',(#365,#366,#367,#368));
#78=EDGE_LOOP('',(#369,#370,#371,#372,#373,#374,#375,#376));
#79=EDGE_LOOP('',(#377,#378,#379,#380,#381,#382,#383,#384));
#80=EDGE_LOOP('',(#385,#386,#387,#388));
#81=EDGE_LOOP('',(#389,#390,#391,#392));
#82=EDGE_LOOP('',(#393,#394,#395,#396));
#83=EDGE_LOOP('',(#397,#398,#399,#400));
#84=EDGE_LOOP('',(#401,#402,#403,#404,#405,#406,#407,#408));
#85=EDGE_LOOP('',(#409));
#86=EDGE_LOOP('',(#410));
#87=EDGE_LOOP('',(#411));
#88=EDGE_LOOP('',(#412));
#89=LINE('',#622,#133);
#90=LINE('',#628,#134);
#91=LINE('',#634,#135);
#92=LINE('',#640,#136);
#93=LINE('',#647,#137);
#94=LINE('',#650,#138);
#95=LINE('',#653,#139);
#96=LINE('',#657,#140);
#97=LINE('',#661,#141);
#98=LINE('',#665,#142);
#99=LINE('',#667,#143);
#100=LINE('',#669,#144);
#101=LINE('',#671,#145);
#102=LINE('',#673,#146);
#103=LINE('',#675,#147);
#104=LINE('',#677,#148);
#105=LINE('',#679,#149);
#106=LINE('',#680,#150);
#107=LINE('',#683,#151);
#108=LINE('',#684,#152);
#109=LINE('',#688,#153);
#110=LINE('',#691,#154);
#111=LINE('',#694,#155);
#112=LINE('',#697,#156);
#113=LINE('',#698,#157);
#114=LINE('',#702,#158);
#115=LINE('',#706,#159);
#116=LINE('',#707,#160);
#117=LINE('',#708,#161);
#118=LINE('',#711,#162);
#119=LINE('',#712,#163);
#120=LINE('',#715,#164);
#121=LINE('',#717,#165);
#122=LINE('',#718,#166);
#123=LINE('',#721,#167);
#124=LINE('',#722,#168);
#125=LINE('',#724,#169);
#126=LINE('',#726,#170);
#127=LINE('',#728,#171);
#128=LINE('',#729,#172);
#129=LINE('',#731,#173);
#130=LINE('',#733,#174);
#131=LINE('',#735,#175);
#132=LINE('',#738,#176);
#133=VECTOR('',#501,1.7);
#134=VECTOR('',#508,1.70000000000002);
#135=VECTOR('',#515,1.70000000000002);
#136=VECTOR('',#522,1.7);
#137=VECTOR('',#529,10.);
#138=VECTOR('',#532,10.);
#139=VECTOR('',#535,10.);
#140=VECTOR('',#538,10.);
#141=VECTOR('',#541,10.);
#142=VECTOR('',#544,10.);
#143=VECTOR('',#545,10.);
#144=VECTOR('',#546,10.);
#145=VECTOR('',#547,10.);
#146=VECTOR('',#548,10.);
#147=VECTOR('',#549,10.);
#148=VECTOR('',#550,10.);
#149=VECTOR('',#551,10.);
#150=VECTOR('',#552,10.);
#151=VECTOR('',#555,10.);
#152=VECTOR('',#556,10.);
#153=VECTOR('',#561,10.);
#154=VECTOR('',#564,10.);
#155=VECTOR('',#567,10.);
#156=VECTOR('',#570,10.);
#157=VECTOR('',#571,10.);
#158=VECTOR('',#576,10.);
#159=VECTOR('',#579,10.);
#160=VECTOR('',#580,10.);
#161=VECTOR('',#581,10.);
#162=VECTOR('',#584,10.);
#163=VECTOR('',#585,10.);
#164=VECTOR('',#588,10.);
#165=VECTOR('',#589,10.);
#166=VECTOR('',#590,10.);
#167=VECTOR('',#593,10.);
#168=VECTOR('',#594,10.);
#169=VECTOR('',#597,10.);
#170=VECTOR('',#598,10.);
#171=VECTOR('',#599,10.);
#172=VECTOR('',#600,10.);
#173=VECTOR('',#603,10.);
#174=VECTOR('',#606,10.);
#175=VECTOR('',#609,10.);
#176=VECTOR('',#614,10.);
#177=CIRCLE('',#458,1.7);
#178=CIRCLE('',#459,1.7);
#179=CIRCLE('',#461,1.70000000000002);
#180=CIRCLE('',#462,1.70000000000002);
#181=CIRCLE('',#464,1.70000000000002);
#182=CIRCLE('',#465,1.70000000000002);
#183=CIRCLE('',#467,1.7);
#184=CIRCLE('',#468,1.7);
#185=CIRCLE('',#470,5.);
#186=CIRCLE('',#471,5.);
#187=CIRCLE('',#473,5.);
#188=CIRCLE('',#474,5.);
#189=CIRCLE('',#475,5.);
#190=CIRCLE('',#478,5.);
#191=CIRCLE('',#480,5.);
#192=CIRCLE('',#483,5.);
#193=VERTEX_POINT('',#619);
#194=VERTEX_POINT('',#621);
#195=VERTEX_POINT('',#625);
#196=VERTEX_POINT('',#627);
#197=VERTEX_POINT('',#631);
#198=VERTEX_POINT('',#633);
#199=VERTEX_POINT('',#637);
#200=VERTEX_POINT('',#639);
#201=VERTEX_POINT('',#643);
#202=VERTEX_POINT('',#644);
#203=VERTEX_POINT('',#646);
#204=VERTEX_POINT('',#648);
#205=VERTEX_POINT('',#652);
#206=VERTEX_POINT('',#654);
#207=VERTEX_POINT('',#656);
#208=VERTEX_POINT('',#658);
#209=VERTEX_POINT('',#660);
#210=VERTEX_POINT('',#662);
#211=VERTEX_POINT('',#664);
#212=VERTEX_POINT('',#666);
#213=VERTEX_POINT('',#668);
#214=VERTEX_POINT('',#670);
#215=VERTEX_POINT('',#672);
#216=VERTEX_POINT('',#674);
#217=VERTEX_POINT('',#676);
#218=VERTEX_POINT('',#678);
#219=VERTEX_POINT('',#682);
#220=VERTEX_POINT('',#686);
#221=VERTEX_POINT('',#690);
#222=VERTEX_POINT('',#692);
#223=VERTEX_POINT('',#696);
#224=VERTEX_POINT('',#700);
#225=VERTEX_POINT('',#704);
#226=VERTEX_POINT('',#705);
#227=VERTEX_POINT('',#710);
#228=VERTEX_POINT('',#714);
#229=VERTEX_POINT('',#716);
#230=VERTEX_POINT('',#720);
#231=VERTEX_POINT('',#725);
#232=VERTEX_POINT('',#727);
#233=EDGE_CURVE('',#193,#193,#177,.T.);
#234=EDGE_CURVE('',#193,#194,#89,.T.);
#235=EDGE_CURVE('',#194,#194,#178,.T.);
#236=EDGE_CURVE('',#195,#195,#179,.T.);
#237=EDGE_CURVE('',#195,#196,#90,.T.);
#238=EDGE_CURVE('',#196,#196,#180,.T.);
#239=EDGE_CURVE('',#197,#197,#181,.T.);
#240=EDGE_CURVE('',#197,#198,#91,.T.);
#241=EDGE_CURVE('',#198,#198,#182,.T.);
#242=EDGE_CURVE('',#199,#199,#183,.T.);
#243=EDGE_CURVE('',#199,#200,#92,.T.);
#244=EDGE_CURVE('',#200,#200,#184,.T.);
#245=EDGE_CURVE('',#201,#202,#185,.T.);
#246=EDGE_CURVE('',#202,#203,#93,.T.);
#247=EDGE_CURVE('',#203,#204,#186,.T.);
#248=EDGE_CURVE('',#204,#201,#94,.T.);
#249=EDGE_CURVE('',#201,#205,#95,.T.);
#250=EDGE_CURVE('',#206,#205,#187,.T.);
#251=EDGE_CURVE('',#206,#207,#96,.T.);
#252=EDGE_CURVE('',#208,#207,#188,.T.);
#253=EDGE_CURVE('',#208,#209,#97,.T.);
#254=EDGE_CURVE('',#210,#209,#189,.T.);
#255=EDGE_CURVE('',#210,#211,#98,.T.);
#256=EDGE_CURVE('',#211,#212,#99,.T.);
#257=EDGE_CURVE('',#212,#213,#100,.T.);
#258=EDGE_CURVE('',#213,#214,#101,.T.);
#259=EDGE_CURVE('',#214,#215,#102,.T.);
#260=EDGE_CURVE('',#215,#216,#103,.T.);
#261=EDGE_CURVE('',#216,#217,#104,.T.);
#262=EDGE_CURVE('',#217,#218,#105,.T.);
#263=EDGE_CURVE('',#218,#202,#106,.T.);
#264=EDGE_CURVE('',#204,#219,#107,.T.);
#265=EDGE_CURVE('',#205,#219,#108,.T.);
#266=EDGE_CURVE('',#219,#220,#190,.T.);
#267=EDGE_CURVE('',#220,#206,#109,.T.);
#268=EDGE_CURVE('',#207,#221,#110,.T.);
#269=EDGE_CURVE('',#221,#222,#191,.T.);
#270=EDGE_CURVE('',#222,#208,#111,.T.);
#271=EDGE_CURVE('',#222,#223,#112,.T.);
#272=EDGE_CURVE('',#209,#223,#113,.T.);
#273=EDGE_CURVE('',#223,#224,#192,.T.);
#274=EDGE_CURVE('',#224,#210,#114,.T.);
#275=EDGE_CURVE('',#225,#226,#115,.T.);
#276=EDGE_CURVE('',#226,#213,#116,.T.);
#277=EDGE_CURVE('',#212,#225,#117,.T.);
#278=EDGE_CURVE('',#226,#227,#118,.T.);
#279=EDGE_CURVE('',#227,#214,#119,.T.);
#280=EDGE_CURVE('',#228,#217,#120,.T.);
#281=EDGE_CURVE('',#228,#229,#121,.T.);
#282=EDGE_CURVE('',#218,#229,#122,.T.);
#283=EDGE_CURVE('',#230,#211,#123,.T.);
#284=EDGE_CURVE('',#230,#225,#124,.T.);
#285=EDGE_CURVE('',#229,#230,#125,.T.);
#286=EDGE_CURVE('',#231,#228,#126,.T.);
#287=EDGE_CURVE('',#232,#231,#127,.T.);
#288=EDGE_CURVE('',#227,#232,#128,.T.);
#289=EDGE_CURVE('',#224,#203,#129,.T.);
#290=EDGE_CURVE('',#231,#216,#130,.T.);
#291=EDGE_CURVE('',#232,#215,#131,.T.);
#292=EDGE_CURVE('',#220,#221,#132,.T.);
#293=ORIENTED_EDGE('',*,*,#233,.F.);
#294=ORIENTED_EDGE('',*,*,#234,.T.);
#295=ORIENTED_EDGE('',*,*,#235,.F.);
#296=ORIENTED_EDGE('',*,*,#234,.F.);
#297=ORIENTED_EDGE('',*,*,#236,.F.);
#298=ORIENTED_EDGE('',*,*,#237,.T.);
#299=ORIENTED_EDGE('',*,*,#238,.F.);
#300=ORIENTED_EDGE('',*,*,#237,.F.);
#301=ORIENTED_EDGE('',*,*,#239,.F.);
#302=ORIENTED_EDGE('',*,*,#240,.T.);
#303=ORIENTED_EDGE('',*,*,#241,.F.);
#304=ORIENTED_EDGE('',*,*,#240,.F.);
#305=ORIENTED_EDGE('',*,*,#242,.F.);
#306=ORIENTED_EDGE('',*,*,#243,.T.);
#307=ORIENTED_EDGE('',*,*,#244,.F.);
#308=ORIENTED_EDGE('',*,*,#243,.F.);
#309=ORIENTED_EDGE('',*,*,#245,.T.);
#310=ORIENTED_EDGE('',*,*,#246,.T.);
#311=ORIENTED_EDGE('',*,*,#247,.T.);
#312=ORIENTED_EDGE('',*,*,#248,.T.);
#313=ORIENTED_EDGE('',*,*,#245,.F.);
#314=ORIENTED_EDGE('',*,*,#249,.T.);
#315=ORIENTED_EDGE('',*,*,#250,.F.);
#316=ORIENTED_EDGE('',*,*,#251,.T.);
#317=ORIENTED_EDGE('',*,*,#252,.F.);
#318=ORIENTED_EDGE('',*,*,#253,.T.);
#319=ORIENTED_EDGE('',*,*,#254,.F.);
#320=ORIENTED_EDGE('',*,*,#255,.T.);
#321=ORIENTED_EDGE('',*,*,#256,.T.);
#322=ORIENTED_EDGE('',*,*,#257,.T.);
#323=ORIENTED_EDGE('',*,*,#258,.T.);
#324=ORIENTED_EDGE('',*,*,#259,.T.);
#325=ORIENTED_EDGE('',*,*,#260,.T.);
#326=ORIENTED_EDGE('',*,*,#261,.T.);
#327=ORIENTED_EDGE('',*,*,#262,.T.);
#328=ORIENTED_EDGE('',*,*,#263,.T.);
#329=ORIENTED_EDGE('',*,*,#233,.T.);
#330=ORIENTED_EDGE('',*,*,#236,.T.);
#331=ORIENTED_EDGE('',*,*,#239,.T.);
#332=ORIENTED_EDGE('',*,*,#242,.T.);
#333=ORIENTED_EDGE('',*,*,#248,.F.);
#334=ORIENTED_EDGE('',*,*,#264,.T.);
#335=ORIENTED_EDGE('',*,*,#265,.F.);
#336=ORIENTED_EDGE('',*,*,#249,.F.);
#337=ORIENTED_EDGE('',*,*,#250,.T.);
#338=ORIENTED_EDGE('',*,*,#265,.T.);
#339=ORIENTED_EDGE('',*,*,#266,.T.);
#340=ORIENTED_EDGE('',*,*,#267,.T.);
#341=ORIENTED_EDGE('',*,*,#252,.T.);
#342=ORIENTED_EDGE('',*,*,#268,.T.);
#343=ORIENTED_EDGE('',*,*,#269,.T.);
#344=ORIENTED_EDGE('',*,*,#270,.T.);
#345=ORIENTED_EDGE('',*,*,#270,.F.);
#346=ORIENTED_EDGE('',*,*,#271,.T.);
#347=ORIENTED_EDGE('',*,*,#272,.F.);
#348=ORIENTED_EDGE('',*,*,#253,.F.);
#349=ORIENTED_EDGE('',*,*,#254,.T.);
#350=ORIENTED_EDGE('',*,*,#272,.T.);
#351=ORIENTED_EDGE('',*,*,#273,.T.);
#352=ORIENTED_EDGE('',*,*,#274,.T.);
#353=ORIENTED_EDGE('',*,*,#275,.T.);
#354=ORIENTED_EDGE('',*,*,#276,.T.);
#355=ORIENTED_EDGE('',*,*,#257,.F.);
#356=ORIENTED_EDGE('',*,*,#277,.T.);
#357=ORIENTED_EDGE('',*,*,#278,.T.);
#358=ORIENTED_EDGE('',*,*,#279,.T.);
#359=ORIENTED_EDGE('',*,*,#258,.F.);
#360=ORIENTED_EDGE('',*,*,#276,.F.);
#361=ORIENTED_EDGE('',*,*,#262,.F.);
#362=ORIENTED_EDGE('',*,*,#280,.F.);
#363=ORIENTED_EDGE('',*,*,#281,.T.);
#364=ORIENTED_EDGE('',*,*,#282,.F.);
#365=ORIENTED_EDGE('',*,*,#256,.F.);
#366=ORIENTED_EDGE('',*,*,#283,.F.);
#367=ORIENTED_EDGE('',*,*,#284,.T.);
#368=ORIENTED_EDGE('',*,*,#277,.F.);
#369=ORIENTED_EDGE('',*,*,#285,.F.);
#370=ORIENTED_EDGE('',*,*,#281,.F.);
#371=ORIENTED_EDGE('',*,*,#286,.F.);
#372=ORIENTED_EDGE('',*,*,#287,.F.);
#373=ORIENTED_EDGE('',*,*,#288,.F.);
#374=ORIENTED_EDGE('',*,*,#278,.F.);
#375=ORIENTED_EDGE('',*,*,#275,.F.);
#376=ORIENTED_EDGE('',*,*,#284,.F.);
#377=ORIENTED_EDGE('',*,*,#246,.F.);
#378=ORIENTED_EDGE('',*,*,#263,.F.);
#379=ORIENTED_EDGE('',*,*,#282,.T.);
#380=ORIENTED_EDGE('',*,*,#285,.T.);
#381=ORIENTED_EDGE('',*,*,#283,.T.);
#382=ORIENTED_EDGE('',*,*,#255,.F.);
#383=ORIENTED_EDGE('',*,*,#274,.F.);
#384=ORIENTED_EDGE('',*,*,#289,.T.);
#385=ORIENTED_EDGE('',*,*,#286,.T.);
#386=ORIENTED_EDGE('',*,*,#280,.T.);
#387=ORIENTED_EDGE('',*,*,#261,.F.);
#388=ORIENTED_EDGE('',*,*,#290,.F.);
#389=ORIENTED_EDGE('',*,*,#287,.T.);
#390=ORIENTED_EDGE('',*,*,#290,.T.);
#391=ORIENTED_EDGE('',*,*,#260,.F.);
#392=ORIENTED_EDGE('',*,*,#291,.F.);
#393=ORIENTED_EDGE('',*,*,#288,.T.);
#394=ORIENTED_EDGE('',*,*,#291,.T.);
#395=ORIENTED_EDGE('',*,*,#259,.F.);
#396=ORIENTED_EDGE('',*,*,#279,.F.);
#397=ORIENTED_EDGE('',*,*,#267,.F.);
#398=ORIENTED_EDGE('',*,*,#292,.T.);
#399=ORIENTED_EDGE('',*,*,#268,.F.);
#400=ORIENTED_EDGE('',*,*,#251,.F.);
#401=ORIENTED_EDGE('',*,*,#247,.F.);
#402=ORIENTED_EDGE('',*,*,#289,.F.);
#403=ORIENTED_EDGE('',*,*,#273,.F.);
#404=ORIENTED_EDGE('',*,*,#271,.F.);
#405=ORIENTED_EDGE('',*,*,#269,.F.);
#406=ORIENTED_EDGE('',*,*,#292,.F.);
#407=ORIENTED_EDGE('',*,*,#266,.F.);
#408=ORIENTED_EDGE('',*,*,#264,.F.);
#409=ORIENTED_EDGE('',*,*,#235,.T.);
#410=ORIENTED_EDGE('',*,*,#238,.T.);
#411=ORIENTED_EDGE('',*,*,#241,.T.);
#412=ORIENTED_EDGE('',*,*,#244,.T.);
#413=CYLINDRICAL_SURFACE('',#457,1.7);
#414=CYLINDRICAL_SURFACE('',#460,1.70000000000002);
#415=CYLINDRICAL_SURFACE('',#463,1.70000000000002);
#416=CYLINDRICAL_SURFACE('',#466,1.7);
#417=CYLINDRICAL_SURFACE('',#469,5.);
#418=CYLINDRICAL_SURFACE('',#477,5.);
#419=CYLINDRICAL_SURFACE('',#479,5.);
#420=CYLINDRICAL_SURFACE('',#482,5.);
#421=ADVANCED_FACE('',(#37),#413,.F.);
#422=ADVANCED_FACE('',(#38),#414,.F.);
#423=ADVANCED_FACE('',(#39),#415,.F.);
#424=ADVANCED_FACE('',(#40),#416,.F.);
#425=ADVANCED_FACE('',(#41),#417,.T.);
#426=ADVANCED_FACE('',(#42,#15,#16,#17,#18),#23,.T.);
#427=ADVANCED_FACE('',(#43),#24,.T.);
#428=ADVANCED_FACE('',(#44),#418,.T.);
#429=ADVANCED_FACE('',(#45),#419,.T.);
#430=ADVANCED_FACE('',(#46),#25,.T.);
#431=ADVANCED_FACE('',(#47),#420,.T.);
#432=ADVANCED_FACE('',(#48),#26,.T.);
#433=ADVANCED_FACE('',(#49),#27,.T.);
#434=ADVANCED_FACE('',(#50),#28,.F.);
#435=ADVANCED_FACE('',(#51),#29,.F.);
#436=ADVANCED_FACE('',(#52),#30,.F.);
#437=ADVANCED_FACE('',(#53),#31,.T.);
#438=ADVANCED_FACE('',(#54),#32,.T.);
#439=ADVANCED_FACE('',(#55),#33,.T.);
#440=ADVANCED_FACE('',(#56),#34,.T.);
#441=ADVANCED_FACE('',(#57),#35,.T.);
#442=ADVANCED_FACE('',(#58,#19,#20,#21,#22),#36,.F.);
#443=CLOSED_SHELL('',(#421,#422,#423,#424,#425,#426,#427,#428,#429,#430,
#431,#432,#433,#434,#435,#436,#437,#438,#439,#440,#441,#442));
#444=DERIVED_UNIT_ELEMENT(#446,1.);
#445=DERIVED_UNIT_ELEMENT(#745,-3.);
#446=(
MASS_UNIT()
NAMED_UNIT(*)
SI_UNIT(.KILO.,.GRAM.)
);
#447=DERIVED_UNIT((#444,#445));
#448=MEASURE_REPRESENTATION_ITEM('density measure',
POSITIVE_RATIO_MEASURE(7850.),#447);
#449=PROPERTY_DEFINITION_REPRESENTATION(#454,#451);
#450=PROPERTY_DEFINITION_REPRESENTATION(#455,#452);
#451=REPRESENTATION('material name',(#453),#742);
#452=REPRESENTATION('density',(#448),#742);
#453=DESCRIPTIVE_REPRESENTATION_ITEM('Steel','Steel');
#454=PROPERTY_DEFINITION('material property','material name',#752);
#455=PROPERTY_DEFINITION('material property','density of part',#752);
#456=AXIS2_PLACEMENT_3D('',#617,#495,#496);
#457=AXIS2_PLACEMENT_3D('',#618,#497,#498);
#458=AXIS2_PLACEMENT_3D('',#620,#499,#500);
#459=AXIS2_PLACEMENT_3D('',#623,#502,#503);
#460=AXIS2_PLACEMENT_3D('',#624,#504,#505);
#461=AXIS2_PLACEMENT_3D('',#626,#506,#507);
#462=AXIS2_PLACEMENT_3D('',#629,#509,#510);
#463=AXIS2_PLACEMENT_3D('',#630,#511,#512);
#464=AXIS2_PLACEMENT_3D('',#632,#513,#514);
#465=AXIS2_PLACEMENT_3D('',#635,#516,#517);
#466=AXIS2_PLACEMENT_3D('',#636,#518,#519);
#467=AXIS2_PLACEMENT_3D('',#638,#520,#521);
#468=AXIS2_PLACEMENT_3D('',#641,#523,#524);
#469=AXIS2_PLACEMENT_3D('',#642,#525,#526);
#470=AXIS2_PLACEMENT_3D('',#645,#527,#528);
#471=AXIS2_PLACEMENT_3D('',#649,#530,#531);
#472=AXIS2_PLACEMENT_3D('',#651,#533,#534);
#473=AXIS2_PLACEMENT_3D('',#655,#536,#537);
#474=AXIS2_PLACEMENT_3D('',#659,#539,#540);
#475=AXIS2_PLACEMENT_3D('',#663,#542,#543);
#476=AXIS2_PLACEMENT_3D('',#681,#553,#554);
#477=AXIS2_PLACEMENT_3D('',#685,#557,#558);
#478=AXIS2_PLACEMENT_3D('',#687,#559,#560);
#479=AXIS2_PLACEMENT_3D('',#689,#562,#563);
#480=AXIS2_PLACEMENT_3D('',#693,#565,#566);
#481=AXIS2_PLACEMENT_3D('',#695,#568,#569);
#482=AXIS2_PLACEMENT_3D('',#699,#572,#573);
#483=AXIS2_PLACEMENT_3D('',#701,#574,#575);
#484=AXIS2_PLACEMENT_3D('',#703,#577,#578);
#485=AXIS2_PLACEMENT_3D('',#709,#582,#583);
#486=AXIS2_PLACEMENT_3D('',#713,#586,#587);
#487=AXIS2_PLACEMENT_3D('',#719,#591,#592);
#488=AXIS2_PLACEMENT_3D('',#723,#595,#596);
#489=AXIS2_PLACEMENT_3D('',#730,#601,#602);
#490=AXIS2_PLACEMENT_3D('',#732,#604,#605);
#491=AXIS2_PLACEMENT_3D('',#734,#607,#608);
#492=AXIS2_PLACEMENT_3D('',#736,#610,#611);
#493=AXIS2_PLACEMENT_3D('',#737,#612,#613);
#494=AXIS2_PLACEMENT_3D('',#739,#615,#616);
#495=DIRECTION('axis',(0.,0.,1.));
#496=DIRECTION('refdir',(1.,0.,0.));
#497=DIRECTION('center_axis',(0.,-1.,0.));
#498=DIRECTION('ref_axis',(-1.,0.,0.));
#499=DIRECTION('center_axis',(0.,-1.,2.73285667600039E-15));
#500=DIRECTION('ref_axis',(-1.,0.,0.));
#501=DIRECTION('',(0.,-1.,0.));
#502=DIRECTION('center_axis',(0.,1.,-1.42941214420489E-15));
#503=DIRECTION('ref_axis',(-1.,0.,0.));
#504=DIRECTION('center_axis',(0.,-1.,0.));
#505=DIRECTION('ref_axis',(-1.,0.,0.));
#506=DIRECTION('center_axis',(0.,-1.,2.73285667600039E-15));
#507=DIRECTION('ref_axis',(-1.,0.,0.));
#508=DIRECTION('',(0.,-1.,0.));
#509=DIRECTION('center_axis',(0.,1.,-1.42941214420489E-15));
#510=DIRECTION('ref_axis',(-1.,0.,0.));
#511=DIRECTION('center_axis',(0.,-1.,0.));
#512=DIRECTION('ref_axis',(-1.,0.,0.));
#513=DIRECTION('center_axis',(0.,-1.,2.73285667600039E-15));
#514=DIRECTION('ref_axis',(-1.,0.,0.));
#515=DIRECTION('',(0.,-1.,0.));
#516=DIRECTION('center_axis',(0.,1.,-1.42941214420489E-15));
#517=DIRECTION('ref_axis',(-1.,0.,0.));
#518=DIRECTION('center_axis',(0.,-1.,0.));
#519=DIRECTION('ref_axis',(-1.,0.,0.));
#520=DIRECTION('center_axis',(0.,-1.,2.73285667600039E-15));
#521=DIRECTION('ref_axis',(-1.,0.,0.));
#522=DIRECTION('',(0.,-1.,0.));
#523=DIRECTION('center_axis',(0.,1.,-1.42941214420489E-15));
#524=DIRECTION('ref_axis',(-1.,0.,0.));
#525=DIRECTION('center_axis',(0.,1.,-2.73285667600039E-15));
#526=DIRECTION('ref_axis',(-0.707106781186549,-1.96261557335472E-15,-0.707106781186546));
#527=DIRECTION('center_axis',(0.,-1.,2.73285667600039E-15));
#528=DIRECTION('ref_axis',(-0.707106781186549,-1.96261557335472E-15,-0.707106781186546));
#529=DIRECTION('',(0.,-1.,2.73285667600039E-15));
#530=DIRECTION('center_axis',(0.,1.,-1.42941214420489E-15));
#531=DIRECTION('ref_axis',(-0.707106781186549,-1.96261557335472E-15,-0.707106781186546));
#532=DIRECTION('',(0.,1.,-2.73285667600039E-15));
#533=DIRECTION('center_axis',(0.,1.,-2.73285667600039E-15));
#534=DIRECTION('ref_axis',(0.,2.73285667600039E-15,1.));
#535=DIRECTION('',(-3.02451276884875E-17,1.42941214420489E-15,1.));
#536=DIRECTION('center_axis',(0.,-1.,2.73285667600039E-15));
#537=DIRECTION('ref_axis',(-0.707106781186547,1.88411095042053E-15,0.707106781186547));
#538=DIRECTION('',(1.,0.,0.));
#539=DIRECTION('center_axis',(0.,-1.,2.73285667600039E-15));
#540=DIRECTION('ref_axis',(0.707106781186547,1.96261557335472E-15,0.707106781186547));
#541=DIRECTION('',(0.,-1.42941214420489E-15,-1.));
#542=DIRECTION('center_axis',(0.,-1.,2.73285667600039E-15));
#543=DIRECTION('ref_axis',(0.707106781186547,-1.88411095042053E-15,-0.707106781186547));
#544=DIRECTION('',(-1.,0.,0.));
#545=DIRECTION('',(0.,2.73285667600039E-15,1.));
#546=DIRECTION('',(1.,3.67938855047114E-32,2.57405715026844E-17));
#547=DIRECTION('',(0.,1.42941214420489E-15,1.));
#548=DIRECTION('',(-1.,0.,0.));
#549=DIRECTION('',(-1.77877597472588E-16,-1.42941214420489E-15,-1.));
#550=DIRECTION('',(1.,3.67938855047114E-32,2.57405715026844E-17));
#551=DIRECTION('',(0.,-2.73285667600039E-15,-1.));
#552=DIRECTION('',(-1.,0.,0.));
#553=DIRECTION('center_axis',(-1.,-8.26555991199673E-32,-3.02451276884875E-17));
#554=DIRECTION('ref_axis',(-3.02451276884875E-17,1.42941214420489E-15,1.));
#555=DIRECTION('',(-3.02451276884875E-17,1.42941214420489E-15,1.));
#556=DIRECTION('',(0.,-1.,2.73285667600039E-15));
#557=DIRECTION('center_axis',(0.,1.,-2.73285667600039E-15));
#558=DIRECTION('ref_axis',(-0.707106781186547,1.88411095042053E-15,0.707106781186547));
#559=DIRECTION('center_axis',(0.,1.,-1.42941214420489E-15));
#560=DIRECTION('ref_axis',(-0.707106781186547,1.88411095042053E-15,0.707106781186547));
#561=DIRECTION('',(0.,1.,-2.73285667600039E-15));
#562=DIRECTION('center_axis',(0.,1.,-2.73285667600039E-15));
#563=DIRECTION('ref_axis',(0.707106781186547,1.96261557335472E-15,0.707106781186547));
#564=DIRECTION('',(0.,-1.,2.73285667600039E-15));
#565=DIRECTION('center_axis',(0.,1.,-1.42941214420489E-15));
#566=DIRECTION('ref_axis',(0.707106781186547,1.96261557335472E-15,0.707106781186547));
#567=DIRECTION('',(0.,1.,-2.73285667600039E-15));
#568=DIRECTION('center_axis',(1.,0.,0.));
#569=DIRECTION('ref_axis',(0.,-1.42941214420489E-15,-1.));
#570=DIRECTION('',(0.,-1.42941214420489E-15,-1.));
#571=DIRECTION('',(0.,-1.,2.73285667600039E-15));
#572=DIRECTION('center_axis',(0.,1.,-2.73285667600039E-15));
#573=DIRECTION('ref_axis',(0.707106781186547,-1.88411095042053E-15,-0.707106781186547));
#574=DIRECTION('center_axis',(0.,1.,-1.42941214420489E-15));
#575=DIRECTION('ref_axis',(0.707106781186547,-1.88411095042053E-15,-0.707106781186547));
#576=DIRECTION('',(0.,1.,-2.73285667600039E-15));
#577=DIRECTION('center_axis',(-2.57405715026844E-17,2.73285667600039E-15,
1.));
#578=DIRECTION('ref_axis',(1.,3.67938855047114E-32,2.57405715026844E-17));
#579=DIRECTION('',(1.,0.,2.57405715026844E-17));
#580=DIRECTION('',(0.,1.,-2.73285667600039E-15));
#581=DIRECTION('',(0.,-1.,2.73285667600039E-15));
#582=DIRECTION('center_axis',(-1.,0.,0.));
#583=DIRECTION('ref_axis',(0.,1.42941214420489E-15,1.));
#584=DIRECTION('',(0.,0.,1.));
#585=DIRECTION('',(0.,1.,-2.73285667600039E-15));
#586=DIRECTION('center_axis',(-1.,0.,0.));
#587=DIRECTION('ref_axis',(0.,0.,-1.));
#588=DIRECTION('',(0.,1.,-2.73285667600039E-15));
#589=DIRECTION('',(0.,0.,-1.));
#590=DIRECTION('',(0.,-1.,2.73285667600039E-15));
#591=DIRECTION('center_axis',(1.,0.,0.));
#592=DIRECTION('ref_axis',(0.,0.,1.));
#593=DIRECTION('',(0.,1.,-2.73285667600039E-15));
#594=DIRECTION('',(0.,0.,1.));
#595=DIRECTION('center_axis',(0.,-1.,0.));
#596=DIRECTION('ref_axis',(0.,0.,-1.));
#597=DIRECTION('',(1.,0.,0.));
#598=DIRECTION('',(1.,0.,2.57405715026844E-17));
#599=DIRECTION('',(-1.77877597472588E-16,0.,-1.));
#600=DIRECTION('',(-1.,0.,0.));
#601=DIRECTION('center_axis',(0.,-2.73285667600039E-15,-1.));
#602=DIRECTION('ref_axis',(-1.,0.,0.));
#603=DIRECTION('',(-1.,0.,0.));
#604=DIRECTION('center_axis',(-2.57405715026844E-17,2.73285667600039E-15,
1.));
#605=DIRECTION('ref_axis',(1.,3.67938855047114E-32,2.57405715026844E-17));
#606=DIRECTION('',(0.,1.,-2.73285667600039E-15));
#607=DIRECTION('center_axis',(1.,-4.86113979763871E-31,-1.77877597472588E-16));
#608=DIRECTION('ref_axis',(-1.77877597472588E-16,-1.42941214420489E-15,
-1.));
#609=DIRECTION('',(0.,1.,-2.73285667600039E-15));
#610=DIRECTION('center_axis',(0.,-2.73285667600039E-15,-1.));
#611=DIRECTION('ref_axis',(-1.,0.,0.));
#612=DIRECTION('center_axis',(0.,2.73285667600039E-15,1.));
#613=DIRECTION('ref_axis',(1.,0.,0.));
#614=DIRECTION('',(1.,0.,0.));
#615=DIRECTION('center_axis',(0.,1.,-1.42941214420489E-15));
#616=DIRECTION('ref_axis',(-1.,0.,0.));
#617=CARTESIAN_POINT('',(0.,0.,0.));
#618=CARTESIAN_POINT('Origin',(22.6,14.51,62.45));
#619=CARTESIAN_POINT('',(24.3,14.51,62.45));
#620=CARTESIAN_POINT('Origin',(22.6,14.51,62.45));
#621=CARTESIAN_POINT('',(24.3,1.51,62.45));
#622=CARTESIAN_POINT('',(24.3,14.51,62.45));
#623=CARTESIAN_POINT('Origin',(22.6,1.51000000000012,62.45));
#624=CARTESIAN_POINT('Origin',(379.65,14.51,199.28));
#625=CARTESIAN_POINT('',(381.35,14.51,199.28));
#626=CARTESIAN_POINT('Origin',(379.65,14.51,199.28));
#627=CARTESIAN_POINT('',(381.35,1.51,199.28));
#628=CARTESIAN_POINT('',(381.35,14.51,199.28));
#629=CARTESIAN_POINT('Origin',(379.65,1.51000000000012,199.28));
#630=CARTESIAN_POINT('Origin',(379.65,14.51,62.45));
#631=CARTESIAN_POINT('',(381.35,14.51,62.45));
#632=CARTESIAN_POINT('Origin',(379.65,14.51,62.45));
#633=CARTESIAN_POINT('',(381.35,1.51,62.45));
#634=CARTESIAN_POINT('',(381.35,14.51,62.45));
#635=CARTESIAN_POINT('Origin',(379.65,1.51000000000012,62.45));
#636=CARTESIAN_POINT('Origin',(22.6,14.51,199.28));
#637=CARTESIAN_POINT('',(24.3,14.51,199.28));
#638=CARTESIAN_POINT('Origin',(22.6,14.51,199.28));
#639=CARTESIAN_POINT('',(24.3,1.51,199.28));
#640=CARTESIAN_POINT('',(24.3,14.51,199.28));
#641=CARTESIAN_POINT('Origin',(22.6,1.51000000000012,199.28));
#642=CARTESIAN_POINT('Origin',(22.6,1.51000000000002,62.45));
#643=CARTESIAN_POINT('',(17.6,14.51,62.45));
#644=CARTESIAN_POINT('',(22.6000000000001,14.51,57.45));
#645=CARTESIAN_POINT('Origin',(22.6,14.5099999999998,62.45));
#646=CARTESIAN_POINT('',(22.6000000000001,1.51000000000001,57.45));
#647=CARTESIAN_POINT('',(22.6,1.51000000000001,57.45));
#648=CARTESIAN_POINT('',(17.6,1.51000000000002,62.45));
#649=CARTESIAN_POINT('Origin',(22.6,1.50999999999993,62.45));
#650=CARTESIAN_POINT('',(17.6,1.51000000000002,62.45));
#651=CARTESIAN_POINT('Origin',(201.125,14.51,130.865));
#652=CARTESIAN_POINT('',(17.6,14.5100000000002,199.28));
#653=CARTESIAN_POINT('',(17.6,14.51,57.45));
#654=CARTESIAN_POINT('',(22.6,14.5100000000002,204.28));
#655=CARTESIAN_POINT('Origin',(22.6,14.5100000000002,199.28));
#656=CARTESIAN_POINT('',(379.65,14.5100000000002,204.28));
#657=CARTESIAN_POINT('',(17.6,14.5100000000002,204.28));
#658=CARTESIAN_POINT('',(384.65,14.5100000000002,199.28));
#659=CARTESIAN_POINT('Origin',(379.65,14.5100000000002,199.28));
#660=CARTESIAN_POINT('',(384.65,14.51,62.45));
#661=CARTESIAN_POINT('',(384.65,14.5100000000002,204.28));
#662=CARTESIAN_POINT('',(379.65,14.51,57.45));
#663=CARTESIAN_POINT('Origin',(379.65,14.5099999999998,62.45));
#664=CARTESIAN_POINT('',(367.421057108541,14.51,57.45));
#665=CARTESIAN_POINT('',(384.65,14.51,57.45));
#666=CARTESIAN_POINT('',(367.421057108541,14.51,68.45));
#667=CARTESIAN_POINT('',(367.421057108541,14.5099999999999,94.1575));
#668=CARTESIAN_POINT('',(373.65,14.51,68.45));
#669=CARTESIAN_POINT('',(373.65,14.51,68.45));
#670=CARTESIAN_POINT('',(373.65,14.5100000000002,193.28));
#671=CARTESIAN_POINT('',(373.65,14.5100000000002,193.28));
#672=CARTESIAN_POINT('',(28.6,14.5100000000002,193.28));
#673=CARTESIAN_POINT('',(28.6,14.5100000000002,193.28));
#674=CARTESIAN_POINT('',(28.6,14.51,68.45));
#675=CARTESIAN_POINT('',(28.6,14.51,68.45));
#676=CARTESIAN_POINT('',(349.40773642771,14.51,68.45));
#677=CARTESIAN_POINT('',(373.65,14.51,68.45));
#678=CARTESIAN_POINT('',(349.40773642771,14.51,57.45));
#679=CARTESIAN_POINT('',(349.40773642771,14.51,99.6575));
#680=CARTESIAN_POINT('',(384.65,14.51,57.45));
#681=CARTESIAN_POINT('Origin',(17.6,1.51000000000001,57.45));
#682=CARTESIAN_POINT('',(17.6,1.51000000000021,199.28));
#683=CARTESIAN_POINT('',(17.6,1.51000000000001,57.45));
#684=CARTESIAN_POINT('',(17.6,1.5100000000003,199.28));
#685=CARTESIAN_POINT('Origin',(22.6,1.5100000000003,199.28));
#686=CARTESIAN_POINT('',(22.6,1.51000000000022,204.28));
#687=CARTESIAN_POINT('Origin',(22.6,1.51000000000031,199.28));
#688=CARTESIAN_POINT('',(22.6,1.51000000000032,204.28));
#689=CARTESIAN_POINT('Origin',(379.65,1.51000000000021,199.28));
#690=CARTESIAN_POINT('',(379.65,1.51000000000022,204.28));
#691=CARTESIAN_POINT('',(379.65,1.51000000000022,204.28));
#692=CARTESIAN_POINT('',(384.65,1.51000000000021,199.28));
#693=CARTESIAN_POINT('Origin',(379.65,1.51000000000031,199.28));
#694=CARTESIAN_POINT('',(384.65,1.51000000000021,199.28));
#695=CARTESIAN_POINT('Origin',(384.65,1.51000000000022,204.28));
#696=CARTESIAN_POINT('',(384.65,1.51000000000002,62.45));
#697=CARTESIAN_POINT('',(384.65,1.51000000000022,204.28));
#698=CARTESIAN_POINT('',(384.65,1.50999999999993,62.45));
#699=CARTESIAN_POINT('Origin',(379.65,1.50999999999993,62.45));
#700=CARTESIAN_POINT('',(379.65,1.51000000000001,57.45));
#701=CARTESIAN_POINT('Origin',(379.65,1.50999999999993,62.45));
#702=CARTESIAN_POINT('',(379.65,1.50999999999991,57.45));
#703=CARTESIAN_POINT('Origin',(28.6,1.51000000000003,68.45));
#704=CARTESIAN_POINT('',(367.421057108541,4.51000000000003,68.45));
#705=CARTESIAN_POINT('',(373.65,4.51000000000003,68.45));
#706=CARTESIAN_POINT('',(114.8625,4.5100000000002,68.45));
#707=CARTESIAN_POINT('',(373.65,1.51000000000003,68.45));
#708=CARTESIAN_POINT('',(367.421057108541,8.01000000000004,68.45));
#709=CARTESIAN_POINT('Origin',(373.65,1.51000000000003,68.45));
#710=CARTESIAN_POINT('',(373.65,4.51000000000021,193.28));
#711=CARTESIAN_POINT('',(373.65,4.5100000000002,99.6575));
#712=CARTESIAN_POINT('',(373.65,1.51000000000021,193.28));
#713=CARTESIAN_POINT('Origin',(349.40773642771,14.51,68.45));
#714=CARTESIAN_POINT('',(349.40773642771,4.51000000000003,68.45));
#715=CARTESIAN_POINT('',(349.40773642771,8.01000000000003,68.45));
#716=CARTESIAN_POINT('',(349.40773642771,4.51000000000003,57.45));
#717=CARTESIAN_POINT('',(349.40773642771,4.51000000000003,68.45));
#718=CARTESIAN_POINT('',(349.40773642771,8.01,57.45));
#719=CARTESIAN_POINT('Origin',(367.421057108541,14.51,57.45));
#720=CARTESIAN_POINT('',(367.421057108541,4.51000000000003,57.45));
#721=CARTESIAN_POINT('',(367.421057108541,8.01000000000002,57.45));
#722=CARTESIAN_POINT('',(367.421057108541,4.51000000000003,57.45));
#723=CARTESIAN_POINT('Origin',(358.414396768126,4.51000000000003,62.95));
#724=CARTESIAN_POINT('',(371.532198384063,4.51000000000003,57.45));
#725=CARTESIAN_POINT('',(28.6,4.51000000000003,68.45));
#726=CARTESIAN_POINT('',(114.8625,4.5100000000002,68.45));
#727=CARTESIAN_POINT('',(28.6,4.51000000000021,193.28));
#728=CARTESIAN_POINT('',(28.6,4.5100000000002,162.0725));
#729=CARTESIAN_POINT('',(287.3875,4.5100000000002,193.28));
#730=CARTESIAN_POINT('Origin',(384.65,1.51000000000001,57.45));
#731=CARTESIAN_POINT('',(384.65,1.51000000000001,57.45));
#732=CARTESIAN_POINT('Origin',(28.6,1.51000000000003,68.45));
#733=CARTESIAN_POINT('',(28.6,1.51000000000003,68.45));
#734=CARTESIAN_POINT('Origin',(28.6,1.51000000000021,193.28));
#735=CARTESIAN_POINT('',(28.6,1.51000000000021,193.28));
#736=CARTESIAN_POINT('Origin',(373.65,1.51000000000021,193.28));
#737=CARTESIAN_POINT('Origin',(17.6,1.51000000000022,204.28));
#738=CARTESIAN_POINT('',(17.6,1.51000000000022,204.28));
#739=CARTESIAN_POINT('Origin',(201.125,1.51000000000012,130.865));
#740=UNCERTAINTY_MEASURE_WITH_UNIT(LENGTH_MEASURE(0.01),#744,
'DISTANCE_ACCURACY_VALUE',
'Maximum model space distance between geometric entities at asserted c
onnectivities');
#741=UNCERTAINTY_MEASURE_WITH_UNIT(LENGTH_MEASURE(0.01),#744,
'DISTANCE_ACCURACY_VALUE',
'Maximum model space distance between geometric entities at asserted c
onnectivities');
#742=(
GEOMETRIC_REPRESENTATION_CONTEXT(3)
GLOBAL_UNCERTAINTY_ASSIGNED_CONTEXT((#740))
GLOBAL_UNIT_ASSIGNED_CONTEXT((#744,#746,#747))
REPRESENTATION_CONTEXT('','3D')
);
#743=(
GEOMETRIC_REPRESENTATION_CONTEXT(3)
GLOBAL_UNCERTAINTY_ASSIGNED_CONTEXT((#741))
GLOBAL_UNIT_ASSIGNED_CONTEXT((#744,#746,#747))
REPRESENTATION_CONTEXT('','3D')
);
#744=(
LENGTH_UNIT()
NAMED_UNIT(*)
SI_UNIT(.MILLI.,.METRE.)
);
#745=(
LENGTH_UNIT()
NAMED_UNIT(*)
SI_UNIT($,.METRE.)
);
#746=(
NAMED_UNIT(*)
PLANE_ANGLE_UNIT()
SI_UNIT($,.RADIAN.)
);
#747=(
NAMED_UNIT(*)
SI_UNIT($,.STERADIAN.)
SOLID_ANGLE_UNIT()
);
#748=SHAPE_DEFINITION_REPRESENTATION(#749,#750);
#749=PRODUCT_DEFINITION_SHAPE('',$,#752);
#750=SHAPE_REPRESENTATION('',(#456),#742);
#751=PRODUCT_DEFINITION_CONTEXT('part definition',#756,'design');
#752=PRODUCT_DEFINITION('2026-03-20-19-49-44-913','casw',#753,#751);
#753=PRODUCT_DEFINITION_FORMATION('',$,#758);
#754=PRODUCT_RELATED_PRODUCT_CATEGORY('casw','casw',(#758));
#755=APPLICATION_PROTOCOL_DEFINITION('international standard',
'automotive_design',2009,#756);
#756=APPLICATION_CONTEXT(
'Core Data for Automotive Mechanical Design Process');
#757=PRODUCT_CONTEXT('part definition',#756,'mechanical');
#758=PRODUCT('2026-03-20-19-49-44-913','casw',$,(#757));
#759=PRESENTATION_STYLE_ASSIGNMENT((#761));
#760=PRESENTATION_STYLE_ASSIGNMENT((#762));
#761=SURFACE_STYLE_USAGE(.BOTH.,#763);
#762=SURFACE_STYLE_USAGE(.BOTH.,#764);
#763=SURFACE_SIDE_STYLE('',(#765));
#764=SURFACE_SIDE_STYLE('',(#766));
#765=SURFACE_STYLE_FILL_AREA(#767);
#766=SURFACE_STYLE_FILL_AREA(#768);
#767=FILL_AREA_STYLE('Plate',(#769));
#768=FILL_AREA_STYLE('Opaque(160,160,160)',(#770));
#769=FILL_AREA_STYLE_COLOUR('Plate',#771);
#770=FILL_AREA_STYLE_COLOUR('Opaque(160,160,160)',#772);
#771=COLOUR_RGB('Plate',0.6,0.6,0.6);
#772=COLOUR_RGB('Opaque(160,160,160)',0.627450980392157,0.627450980392157,
0.627450980392157);
ENDSEC;
END-ISO-10303-21;
